<?xml version="1.0" encoding="UTF-8"?>
<svg id="Layer_1" data-name="Layer 1" xmlns="http://www.w3.org/2000/svg" viewBox="0 0 16 11.52">
  <defs>
    <style>
      .cls-1 {
        fill: #28282d;
      }

      .cls-1, .cls-2 {
        stroke-width: 0px;
      }

      .cls-2 {
        fill: #be0000;
      }
    </style>
  </defs>
  <path class="cls-2" d="M6.36,5.16l2.18-2.18-1-1.61c-.37-.59-1.19-.69-1.68-.2L.93,6.11c-1.24,1.24-1.24,3.24,0,4.48s3.24,1.24,4.48,0l2.05-2.05-1.26-2.04c-.26-.43-.2-.98.15-1.33Z"/>
  <path class="cls-1" d="M15.07.93c-1.24-1.24-3.24-1.24-4.48,0l-2.05,2.05,1.26,2.04c.26.43.2.98-.15,1.33l-2.18,2.18,1,1.61c.37.59,1.19.69,1.68.2l4.93-4.93c1.24-1.24,1.24-3.24,0-4.48Z"/>
</svg>